<svg height="512" viewBox="0 0 24 24" width="512" xmlns="http://www.w3.org/2000/svg"><g id="Layer_2" data-name="Layer 2"><path d="m12 21.4a2 2 0 0 1 -1.56-.75l-1.82-2.27a1 1 0 0 0 -.78-.38h-2.84a3 3 0 0 1 -3-3v-9a3 3 0 0 1 3-3h14a3 3 0 0 1 3 3v9a3 3 0 0 1 -3 3h-1a1 1 0 0 1 0-2h1a1 1 0 0 0 1-1v-9a1 1 0 0 0 -1-1h-14a1 1 0 0 0 -1 1v9a1 1 0 0 0 1 1h2.84a3 3 0 0 1 2.34 1.13l1.82 2.27 1.62-2a1 1 0 1 1 1.56 1.25l-1.62 2a2 2 0 0 1 -1.56.75z" fill="#232323"/><g fill="#7fbde7"><path d="m12 12a1 1 0 0 1 -1-1v-3a1 1 0 0 1 2 0v3a1 1 0 0 1 -1 1z"/><circle cx="12" cy="13.75" r="1"/></g></g></svg>