<?xml version="1.0" encoding="UTF-8" standalone="no"?>
<!-- Created with Inkscape (http://www.inkscape.org/) -->

<svg
   version="1.1"
   id="svg3432"
   xml:space="preserve"
   width="682.66669"
   height="682.66669"
   viewBox="0 0 682.66669 682.66669"
   xmlns="http://www.w3.org/2000/svg"
   xmlns:svg="http://www.w3.org/2000/svg"><defs
     id="defs3436"><clipPath
       clipPathUnits="userSpaceOnUse"
       id="clipPath3446"><path
         d="M 0,512 H 512 V 0 H 0 Z"
         id="path3444" /></clipPath></defs><g
     id="g3438"
     transform="matrix(1.3333333,0,0,-1.3333333,0,682.66667)"><g
       id="g3440"><g
         id="g3442"
         clip-path="url(#clipPath3446)"><g
           id="g3448"
           transform="translate(256,253.0508)"><path
             d="M 0,0 V 0 C -27.172,0 -49.2,22.028 -49.2,49.2 V 67.982 H 49.2 V 49.2 C 49.2,22.028 27.173,0 0,0 Z"
             style="fill:none;stroke:#000000;stroke-width:20;stroke-linecap:round;stroke-linejoin:round;stroke-miterlimit:10;stroke-dasharray:none;stroke-opacity:1"
             id="path3450" /></g><g
           id="g3452"
           transform="translate(157.6001,253.0508)"><path
             d="m 0,0 v 0 c -27.172,0 -49.2,22.028 -49.2,49.2 l -0.5,18.782 H 49.2 V 49.2 C 49.2,22.028 27.172,0 0,0 Z"
             style="fill:none;stroke:#000000;stroke-width:20;stroke-linecap:round;stroke-linejoin:round;stroke-miterlimit:10;stroke-dasharray:none;stroke-opacity:1"
             id="path3454" /></g><g
           id="g3456"
           transform="translate(354.4004,253.0508)"><path
             d="M 0,0 V 0 C -27.173,0 -49.2,22.028 -49.2,49.2 V 67.982 H 49.199 V 49.2 C 49.199,22.028 27.172,0 0,0 Z"
             style="fill:none;stroke:#000000;stroke-width:20;stroke-linecap:round;stroke-linejoin:round;stroke-miterlimit:10;stroke-dasharray:none;stroke-opacity:1"
             id="path3458" /></g><g
           id="g3460"
           transform="translate(59.2002,253.0508)"><path
             d="M 0,0 V 0 C -27.173,0 -49.2,22.028 -49.2,49.2 V 67.982 H 48.7 L 49.2,49.2 C 49.2,22.028 27.172,0 0,0 Z"
             style="fill:none;stroke:#000000;stroke-width:20;stroke-linecap:round;stroke-linejoin:round;stroke-miterlimit:10;stroke-dasharray:none;stroke-opacity:1"
             id="path3462" /></g><g
           id="g3464"
           transform="translate(452.7998,253.0508)"><path
             d="M 0,0 V 0 C -27.172,0 -49.2,22.028 -49.2,49.2 V 67.982 H 49.2 V 49.2 C 49.2,22.028 27.173,0 0,0 Z"
             style="fill:none;stroke:#000000;stroke-width:20;stroke-linecap:round;stroke-linejoin:round;stroke-miterlimit:10;stroke-dasharray:none;stroke-opacity:1"
             id="path3466" /></g><g
           id="g3468"
           transform="translate(478.7998,377.6465)"><path
             d="m 0,0 -67.436,83.45 c -4.404,5.451 -11.037,8.618 -18.044,8.618 h -274.545 c -7.062,0 -13.739,-3.215 -18.141,-8.737 L -444.6,0 h -0.406 c -12.653,0 -22.973,-10.139 -23.196,-22.79 l -0.598,-33.823 h 492 V -23.2 C 23.2,-10.387 12.813,0 0,0 Z"
             style="fill:none;stroke:#000000;stroke-width:20;stroke-linecap:round;stroke-linejoin:round;stroke-miterlimit:10;stroke-dasharray:none;stroke-opacity:1"
             id="path3470" /></g><g
           id="g3472"
           transform="translate(472.7998,194.1377)"><path
             d="m 0,0 v 63.147 c -6.11,-2.719 -12.88,-4.23 -20,-4.23 -27.17,0 -49.2,22.021 -49.2,49.2 0,-27.179 -22.029,-49.2 -49.199,-49.2 -27.17,0 -49.201,22.021 -49.201,49.2 0,-27.179 -22.03,-49.2 -49.2,-49.2 -27.17,0 -49.2,22.021 -49.2,49.2 0,-27.179 -22.03,-49.2 -49.2,-49.2 -27.17,0 -49.2,22.021 -49.2,49.2 0,-27.179 -22.03,-49.2 -49.2,-49.2 -7.12,0 -13.89,1.511 -20,4.23 v -215 H 0 v 64.027"
             style="fill:none;stroke:#000000;stroke-width:20;stroke-linecap:round;stroke-linejoin:round;stroke-miterlimit:10;stroke-dasharray:none;stroke-opacity:1"
             id="path3474" /></g><g
           id="g3476"
           transform="translate(10,42.2871)"><path
             d="M 0,0 H 492"
             style="fill:none;stroke:#000000;stroke-width:20;stroke-linecap:round;stroke-linejoin:round;stroke-miterlimit:10;stroke-dasharray:none;stroke-opacity:1"
             id="path3478" /></g><path
           d="M 179.219,42.287 H 91.075 v 158.648 h 88.144 z"
           style="fill:none;stroke:#000000;stroke-width:20;stroke-linecap:round;stroke-linejoin:round;stroke-miterlimit:10;stroke-dasharray:none;stroke-opacity:1"
           id="path3480" /><g
           id="g3482"
           transform="translate(226.5571,106.9736)"><path
             d="M 0,0 H 79.087"
             style="fill:none;stroke:#000000;stroke-width:20;stroke-linecap:round;stroke-linejoin:round;stroke-miterlimit:10;stroke-dasharray:none;stroke-opacity:1"
             id="path3484" /></g><path
           d="M 293.222,106.974 H 238.98 v 76.337 h 54.242 z"
           style="fill:none;stroke:#000000;stroke-width:20;stroke-linecap:round;stroke-linejoin:round;stroke-miterlimit:10;stroke-dasharray:none;stroke-opacity:1"
           id="path3486" /><path
           d="m 417.043,106.974 h -54.242 v 76.337 h 54.242 z"
           style="fill:none;stroke:#000000;stroke-width:20;stroke-linecap:round;stroke-linejoin:round;stroke-miterlimit:10;stroke-dasharray:none;stroke-opacity:1"
           id="path3488" /><g
           id="g3490"
           transform="translate(350.3789,106.9736)"><path
             d="M 0,0 H 79.087"
             style="fill:none;stroke:#000000;stroke-width:20;stroke-linecap:round;stroke-linejoin:round;stroke-miterlimit:10;stroke-dasharray:none;stroke-opacity:1"
             id="path3492" /></g><g
           id="g3494"
           transform="translate(121.8438,120.7139)"><path
             d="M 0,0 V 0"
             style="fill:none;stroke:#000000;stroke-width:20;stroke-linecap:round;stroke-linejoin:round;stroke-miterlimit:10;stroke-dasharray:none;stroke-opacity:1"
             id="path3496" /></g><g
           id="g3498"
           transform="translate(33.7939,377.6465)"><path
             d="m 0,0 h 74.106 v -56.613 h -97.9 l 0.598,33.823 C -22.973,-10.139 -12.653,0 0,0 Z"
             style="fill:none;stroke:#000000;stroke-width:20;stroke-linecap:round;stroke-linejoin:round;stroke-miterlimit:10;stroke-dasharray:none;stroke-opacity:1"
             id="path3500" /></g><g
           id="g3502"
           transform="translate(107.8999,377.6465)"><path
             d="M 0,0 50.604,92.068 H 10.875 c -7.062,0 -13.739,-3.215 -18.141,-8.737 L -73.7,0 Z"
             style="fill:none;stroke:#000000;stroke-width:20;stroke-linecap:round;stroke-linejoin:round;stroke-miterlimit:10;stroke-dasharray:none;stroke-opacity:1"
             id="path3504" /></g><path
           d="m 107.9,377.646 h 98.9 v -56.613 h -98.9 z"
           style="fill:none;stroke:#000000;stroke-width:20;stroke-linecap:round;stroke-linejoin:round;stroke-miterlimit:10;stroke-dasharray:none;stroke-opacity:1"
           id="path3506" /><g
           id="g3508"
           transform="translate(206.7998,377.6465)"><path
             d="M 0,0 11,92.068 H -48.295 L -98.9,0 Z"
             style="fill:none;stroke:#000000;stroke-width:20;stroke-linecap:round;stroke-linejoin:round;stroke-miterlimit:10;stroke-dasharray:none;stroke-opacity:1"
             id="path3510" /></g><g
           id="g3512"
           transform="translate(403.5996,377.6465)"><path
             d="M 0,0 H 75.2 C 88.014,0 98.4,-10.387 98.4,-23.2 V -56.613 H 0 Z"
             style="fill:none;stroke:#000000;stroke-width:20;stroke-linecap:round;stroke-linejoin:round;stroke-miterlimit:10;stroke-dasharray:none;stroke-opacity:1"
             id="path3514" /></g><g
           id="g3516"
           transform="translate(403.5996,377.6465)"><path
             d="m 0,0 -50.104,92.068 h 39.824 c 7.008,0 13.64,-3.167 18.045,-8.618 L 75.2,0 Z"
             style="fill:none;stroke:#000000;stroke-width:20;stroke-linecap:round;stroke-linejoin:round;stroke-miterlimit:10;stroke-dasharray:none;stroke-opacity:1"
             id="path3518" /></g><path
           d="m 305.2,377.646 h 98.399 V 321.033 H 305.2 Z"
           style="fill:none;stroke:#000000;stroke-width:20;stroke-linecap:round;stroke-linejoin:round;stroke-miterlimit:10;stroke-dasharray:none;stroke-opacity:1"
           id="path3520" /><g
           id="g3522"
           transform="translate(305.2002,377.6465)"><path
             d="M 0,0 -12,92.068 H 48.295 L 98.399,0 Z"
             style="fill:none;stroke:#000000;stroke-width:20;stroke-linecap:round;stroke-linejoin:round;stroke-miterlimit:10;stroke-dasharray:none;stroke-opacity:1"
             id="path3524" /></g><path
           d="m 206.8,377.646 h 98.4 v -56.613 h -98.4 z"
           style="fill:none;stroke:#000000;stroke-width:20;stroke-linecap:round;stroke-linejoin:round;stroke-miterlimit:10;stroke-dasharray:none;stroke-opacity:1"
           id="path3526" /><g
           id="g3528"
           transform="translate(293.2002,469.7148)"><path
             d="m 0,0 h -75.4 l -11,-92.068 H 12 Z"
             style="fill:none;stroke:#000000;stroke-width:20;stroke-linecap:round;stroke-linejoin:round;stroke-miterlimit:10;stroke-dasharray:none;stroke-opacity:1"
             id="path3530" /></g><g
           id="g3532"
           transform="translate(472.7998,151.4736)"><path
             d="M 0,0 V 0"
             style="fill:none;stroke:#000000;stroke-width:20;stroke-linecap:round;stroke-linejoin:round;stroke-miterlimit:10;stroke-dasharray:none;stroke-opacity:1"
             id="path3534" /></g></g></g></g></svg>
