<svg id="Capa_1" enable-background="new 0 0 512 512" height="512" viewBox="0 0 512 512" width="512" xmlns="http://www.w3.org/2000/svg"><g id="Page-1"><g id="_x30_28---Notice-Board"><path id="Shape" d="m469.333 17.067h-426.666c-23.553.028-42.639 19.114-42.667 42.666v375.467c.028 23.552 19.114 42.638 42.667 42.667h61.85c4.532 7.955 12.98 12.87 22.135 12.877 2.989-.005 5.955-.531 8.764-1.553l31.104-11.324h302.814c23.552-.028 42.638-19.114 42.667-42.667v-375.467c-.029-23.552-19.115-42.638-42.668-42.666zm-162.133 418.133v-119.467h34.133v8.533c0 9.426 7.641 17.067 17.067 17.067h17.067c9.426 0 17.067-7.641 17.067-17.067v-8.533h34.133v68.267h-42.667c-4.713 0-8.533 3.821-8.533 8.533v42.667zm68.267-128v17.067h-17.067v-34.133h17.067zm39.134 93.867-22.067 22.067v-22.067zm26.624-2.492c.882-.907 2.557-3.481 2.509-6.042v-76.8c0-9.426-7.641-17.067-17.067-17.067h-34.133v-8.533c0-9.426-7.641-17.067-17.067-17.067h-17.067c-9.426 0-17.067 7.641-17.067 17.067v8.533h-34.133c-9.426 0-17.067 7.641-17.067 17.067v110.933h-25.796c.388-3.772-.076-7.584-1.357-11.153l-40.858-112.265c-4.836-13.281-19.519-20.13-32.802-15.3l-112.273 40.867c-13.285 4.836-20.135 19.525-15.3 32.811l23.68 65.041h-34.227v-358.4h409.6v358.4h-47.667zm-311.646 74.573c-2.128.771-4.476.665-6.526-.295s-3.635-2.696-4.405-4.825l-13.15-36.139-27.717-76.109c-.771-2.129-.665-4.476.295-6.526s2.696-3.635 4.825-4.405l112.265-40.858c2.13-.774 4.479-.669 6.532.291 2.052.96 3.638 2.698 4.408 4.829l40.858 112.265c.774 2.13.669 4.479-.291 6.532s-2.698 3.638-4.829 4.408zm365.354-37.948c0 14.138-11.462 25.6-25.6 25.6h-255.914l34.261-12.467c2.846-1.06 5.481-2.618 7.782-4.599h37.043c3.024 5.263 8.624 8.515 14.694 8.533h76.801c2.265-.013 4.434-.913 6.042-2.509l6.025-6.025h73.267c4.713 0 8.533-3.82 8.533-8.533v-375.467c0-4.713-3.821-8.533-8.533-8.533h-426.667c-4.713 0-8.533 3.821-8.533 8.533v375.467c0 4.713 3.821 8.533 8.533 8.533h48.973l6.212 17.067h-55.185c-14.138 0-25.6-11.462-25.6-25.6v-375.467c0-14.138 11.462-25.6 25.6-25.6h426.667c14.138 0 25.6 11.462 25.6 25.6v375.467z"/><path id="Shape_1_" d="m221.867 110.933h-42.667v-8.533c0-9.426-7.641-17.067-17.067-17.067h-17.067c-9.426 0-17.067 7.641-17.067 17.067v8.533h-42.666c-9.426 0-17.067 7.641-17.067 17.067v119.467c0 9.426 7.641 17.067 17.067 17.067h93.867c1.122-.004 2.232-.228 3.268-.657 1.037-.429 1.98-1.058 2.773-1.852l51.2-51.2c.678-.706 2.225-2.887 2.475-5.999v-76.826c0-9.419-7.63-17.057-17.049-17.067zm-76.8-8.533h17.067v34.133h-17.067zm-59.734 25.6h42.667v8.533c0 9.426 7.641 17.067 17.067 17.067h17.067c9.426 0 17.067-7.641 17.067-17.067v-8.533h42.667v68.267h-42.668c-4.713 0-8.533 3.821-8.533 8.533v42.667h-85.334zm102.4 107.401v-22.067h22.067z"/><path id="Shape_2_" d="m426.667 119.467h-42.667v-17.067c0-9.426-7.641-17.067-17.067-17.067h-17.067c-9.426 0-17.067 7.641-17.067 17.067v17.067h-42.667c-9.426 0-17.067 7.641-17.067 17.067v102.4c0 9.426 7.641 17.067 17.067 17.067h136.533c9.426 0 17.067-7.641 17.067-17.067v-102.4c.001-9.426-7.64-17.067-17.065-17.067zm-76.8-17.067h17.067v34.133h-17.067zm76.8 136.533h-136.534v-102.4h42.667c0 9.426 7.641 17.067 17.067 17.067h17.067c9.426 0 17.067-7.641 17.067-17.067h42.667v102.4z"/><path id="Shape_3_" d="m307.2 179.2c0 4.713 3.821 8.533 8.533 8.533h85.333c4.713 0 8.533-3.821 8.533-8.533 0-4.713-3.821-8.533-8.533-8.533h-85.333c-4.712 0-8.533 3.82-8.533 8.533z"/><path id="Shape_4_" d="m401.067 204.8h-85.333c-4.713 0-8.533 3.821-8.533 8.533s3.821 8.533 8.533 8.533h85.333c4.713 0 8.533-3.821 8.533-8.533s-3.82-8.533-8.533-8.533z"/><circle id="Oval" cx="192.538" cy="332.8" r="8.533"/><path id="Shape_5_" d="m204.459 365.918c-.77-2.129-2.355-3.864-4.405-4.825-2.05-.96-4.398-1.066-6.526-.295l-72.175 26.266c-3.894 1.413-6.21 5.419-5.493 9.499s4.261 7.055 8.403 7.056c.996.003 1.985-.173 2.918-.521l72.175-26.266c4.417-1.611 6.699-6.492 5.103-10.914z"/><path id="Shape_6_" d="m208.119 400.913-72.166 26.274c-3.881 1.421-6.186 5.42-5.47 9.491s4.246 7.043 8.38 7.055c.996.003 1.985-.173 2.918-.521l72.166-26.266c4.302-1.695 6.471-6.509 4.891-10.854-1.579-4.345-6.332-6.642-10.719-5.179z"/></g></g></svg>